<svg width="33" height="33" viewBox="0 0 33 33" fill="none" xmlns="http://www.w3.org/2000/svg">
<circle cx="16.5" cy="16.5" r="16.5" fill="#2D2D2D"/>
<path d="M14.214 22.21C15.366 21.214 16.272 20.398 16.932 19.762C17.604 19.114 18.162 18.442 18.606 17.746C19.05 17.05 19.272 16.354 19.272 15.658C19.272 14.938 19.098 14.374 18.75 13.966C18.414 13.558 17.88 13.354 17.148 13.354C16.44 13.354 15.888 13.582 15.492 14.038C15.108 14.482 14.904 15.082 14.88 15.838H12.9C12.936 14.47 13.344 13.426 14.124 12.706C14.916 11.974 15.918 11.608 17.13 11.608C18.438 11.608 19.458 11.968 20.19 12.688C20.934 13.408 21.306 14.368 21.306 15.568C21.306 16.432 21.084 17.266 20.64 18.07C20.208 18.862 19.686 19.576 19.074 20.212C18.474 20.836 17.706 21.562 16.77 22.39L15.96 23.11H21.666V24.82H12.918V23.326L14.214 22.21Z" fill="white"/>
</svg>
