<svg width="223" height="105" viewBox="0 0 223 105" fill="none" xmlns="http://www.w3.org/2000/svg">
<path d="M3.348 76.801C2.88 76.801 2.484 76.639 2.16 76.315C1.836 75.991 1.674 75.595 1.674 75.127C1.674 74.659 1.836 74.263 2.16 73.939C2.484 73.615 2.88 73.453 3.348 73.453C3.798 73.453 4.176 73.615 4.482 73.939C4.806 74.263 4.968 74.659 4.968 75.127C4.968 75.595 4.806 75.991 4.482 76.315C4.176 76.639 3.798 76.801 3.348 76.801ZM4.536 79.204V94H2.079V79.204H4.536ZM15.9325 78.934C17.7325 78.934 19.1905 79.483 20.3065 80.581C21.4225 81.661 21.9805 83.227 21.9805 85.279V94H19.5505V85.63C19.5505 84.154 19.1815 83.029 18.4435 82.255C17.7055 81.463 16.6975 81.067 15.4195 81.067C14.1235 81.067 13.0885 81.472 12.3145 82.282C11.5585 83.092 11.1805 84.271 11.1805 85.819V94H8.72353V79.204H11.1805V81.31C11.6665 80.554 12.3235 79.969 13.1515 79.555C13.9975 79.141 14.9245 78.934 15.9325 78.934ZM32.015 81.229H28.91V94H26.453V81.229H24.536V79.204H26.453V78.151C26.453 76.495 26.876 75.289 27.722 74.533C28.586 73.759 29.963 73.372 31.853 73.372V75.424C30.773 75.424 30.008 75.64 29.558 76.072C29.126 76.486 28.91 77.179 28.91 78.151V79.204H32.015V81.229ZM41.3328 94.243C39.9468 94.243 38.6868 93.928 37.5528 93.298C36.4368 92.668 35.5548 91.777 34.9068 90.625C34.2768 89.455 33.9618 88.105 33.9618 86.575C33.9618 85.063 34.2858 83.731 34.9338 82.579C35.5998 81.409 36.4998 80.518 37.6338 79.906C38.7678 79.276 40.0368 78.961 41.4408 78.961C42.8448 78.961 44.1138 79.276 45.2478 79.906C46.3818 80.518 47.2728 81.4 47.9208 82.552C48.5868 83.704 48.9198 85.045 48.9198 86.575C48.9198 88.105 48.5778 89.455 47.8938 90.625C47.2278 91.777 46.3188 92.668 45.1668 93.298C44.0148 93.928 42.7368 94.243 41.3328 94.243ZM41.3328 92.083C42.2148 92.083 43.0428 91.876 43.8168 91.462C44.5908 91.048 45.2118 90.427 45.6798 89.599C46.1658 88.771 46.4088 87.763 46.4088 86.575C46.4088 85.387 46.1748 84.379 45.7068 83.551C45.2388 82.723 44.6268 82.111 43.8708 81.715C43.1148 81.301 42.2958 81.094 41.4138 81.094C40.5138 81.094 39.6858 81.301 38.9298 81.715C38.1918 82.111 37.5978 82.723 37.1478 83.551C36.6978 84.379 36.4728 85.387 36.4728 86.575C36.4728 87.781 36.6888 88.798 37.1208 89.626C37.5708 90.454 38.1648 91.075 38.9028 91.489C39.6408 91.885 40.4508 92.083 41.3328 92.083ZM65.6503 76.693C67.6483 76.693 69.3853 77.071 70.8613 77.827C72.3373 78.583 73.4713 79.645 74.2633 81.013C75.0553 82.363 75.4513 83.929 75.4513 85.711C75.4513 87.133 75.2173 88.501 74.7493 89.815C74.2813 91.111 73.5973 92.164 72.6973 92.974C71.8153 93.784 70.7803 94.189 69.5923 94.189C68.6923 94.189 67.9993 93.964 67.5133 93.514C67.0273 93.064 66.7483 92.452 66.6763 91.678C66.1183 92.452 65.4073 93.064 64.5433 93.514C63.6973 93.964 62.7973 94.189 61.8433 94.189C60.4753 94.189 59.3953 93.775 58.6033 92.947C57.8293 92.101 57.4423 90.967 57.4423 89.545C57.4423 88.195 57.7213 86.935 58.2793 85.765C58.8553 84.595 59.6473 83.659 60.6553 82.957C61.6633 82.237 62.8063 81.877 64.0843 81.877C65.7943 81.877 66.9463 82.525 67.5403 83.821L67.8373 82.147H69.9703L68.6203 89.95C68.5663 90.292 68.5393 90.607 68.5393 90.895C68.5393 91.975 69.0163 92.515 69.9703 92.515C70.6903 92.515 71.3113 92.173 71.8333 91.489C72.3733 90.805 72.7783 89.95 73.0483 88.924C73.3183 87.88 73.4533 86.854 73.4533 85.846C73.4533 83.488 72.7423 81.661 71.3203 80.365C69.9163 79.069 67.9273 78.421 65.3533 78.421C63.2113 78.421 61.2763 78.943 59.5483 79.987C57.8383 81.013 56.4973 82.426 55.5253 84.226C54.5533 86.026 54.0673 88.015 54.0673 90.193C54.0493 92.569 54.7603 94.396 56.2003 95.674C57.6403 96.97 59.6383 97.618 62.1943 97.618C63.8863 97.618 65.3803 97.312 66.6763 96.7L67.0003 98.374C65.3983 99.04 63.6343 99.373 61.7083 99.373C59.7823 99.373 58.0813 99.004 56.6053 98.266C55.1473 97.546 54.0133 96.502 53.2033 95.134C52.4113 93.784 52.0153 92.209 52.0153 90.409C52.0153 87.871 52.6003 85.558 53.7703 83.47C54.9403 81.364 56.5603 79.708 58.6303 78.502C60.7183 77.296 63.0583 76.693 65.6503 76.693ZM62.5723 92.272C63.3823 92.272 64.1293 92.038 64.8133 91.57C65.4973 91.084 66.0373 90.436 66.4333 89.626C66.8293 88.798 67.0273 87.898 67.0273 86.926C67.0273 85.99 66.7663 85.234 66.2443 84.658C65.7403 84.064 65.0203 83.767 64.0843 83.767C63.2203 83.767 62.4553 84.028 61.7893 84.55C61.1413 85.054 60.6373 85.729 60.2773 86.575C59.9173 87.403 59.7373 88.267 59.7373 89.167C59.7373 90.121 59.9803 90.877 60.4663 91.435C60.9523 91.993 61.6543 92.272 62.5723 92.272ZM97.2861 78.934C98.4381 78.934 99.4641 79.177 100.364 79.663C101.264 80.131 101.975 80.842 102.497 81.796C103.019 82.75 103.28 83.911 103.28 85.279V94H100.85V85.63C100.85 84.154 100.481 83.029 99.7431 82.255C99.0231 81.463 98.0421 81.067 96.8001 81.067C95.5221 81.067 94.5051 81.481 93.7491 82.309C92.9931 83.119 92.6151 84.298 92.6151 85.846V94H90.1851V85.63C90.1851 84.154 89.8161 83.029 89.0781 82.255C88.3581 81.463 87.3771 81.067 86.1351 81.067C84.8571 81.067 83.8401 81.481 83.0841 82.309C82.3281 83.119 81.9501 84.298 81.9501 85.846V94H79.4931V79.204H81.9501V81.337C82.4361 80.563 83.0841 79.969 83.8941 79.555C84.7221 79.141 85.6311 78.934 86.6211 78.934C87.8631 78.934 88.9611 79.213 89.9151 79.771C90.8691 80.329 91.5801 81.148 92.0481 82.228C92.4621 81.184 93.1461 80.374 94.1001 79.798C95.0541 79.222 96.1161 78.934 97.2861 78.934ZM106.392 86.548C106.392 85.036 106.698 83.713 107.31 82.579C107.922 81.427 108.759 80.536 109.821 79.906C110.901 79.276 112.098 78.961 113.412 78.961C114.708 78.961 115.833 79.24 116.787 79.798C117.741 80.356 118.452 81.058 118.92 81.904V79.204H121.404V94H118.92V91.246C118.434 92.11 117.705 92.83 116.733 93.406C115.779 93.964 114.663 94.243 113.385 94.243C112.071 94.243 110.883 93.919 109.821 93.271C108.759 92.623 107.922 91.714 107.31 90.544C106.698 89.374 106.392 88.042 106.392 86.548ZM118.92 86.575C118.92 85.459 118.695 84.487 118.245 83.659C117.795 82.831 117.183 82.201 116.409 81.769C115.653 81.319 114.816 81.094 113.898 81.094C112.98 81.094 112.143 81.31 111.387 81.742C110.631 82.174 110.028 82.804 109.578 83.632C109.128 84.46 108.903 85.432 108.903 86.548C108.903 87.682 109.128 88.672 109.578 89.518C110.028 90.346 110.631 90.985 111.387 91.435C112.143 91.867 112.98 92.083 113.898 92.083C114.816 92.083 115.653 91.867 116.409 91.435C117.183 90.985 117.795 90.346 118.245 89.518C118.695 88.672 118.92 87.691 118.92 86.575ZM128.014 81.607C128.446 80.761 129.058 80.104 129.85 79.636C130.66 79.168 131.641 78.934 132.793 78.934V81.472H132.145C129.391 81.472 128.014 82.966 128.014 85.954V94H125.557V79.204H128.014V81.607ZM136.898 76.801C136.43 76.801 136.034 76.639 135.71 76.315C135.386 75.991 135.224 75.595 135.224 75.127C135.224 74.659 135.386 74.263 135.71 73.939C136.034 73.615 136.43 73.453 136.898 73.453C137.348 73.453 137.726 73.615 138.032 73.939C138.356 74.263 138.518 74.659 138.518 75.127C138.518 75.595 138.356 75.991 138.032 76.315C137.726 76.639 137.348 76.801 136.898 76.801ZM138.086 79.204V94H135.629V79.204H138.086ZM141.355 86.575C141.355 85.045 141.661 83.713 142.273 82.579C142.885 81.427 143.731 80.536 144.811 79.906C145.909 79.276 147.16 78.961 148.564 78.961C150.382 78.961 151.876 79.402 153.046 80.284C154.234 81.166 155.017 82.39 155.395 83.956H152.749C152.497 83.056 152.002 82.345 151.264 81.823C150.544 81.301 149.644 81.04 148.564 81.04C147.16 81.04 146.026 81.526 145.162 82.498C144.298 83.452 143.866 84.811 143.866 86.575C143.866 88.357 144.298 89.734 145.162 90.706C146.026 91.678 147.16 92.164 148.564 92.164C149.644 92.164 150.544 91.912 151.264 91.408C151.984 90.904 152.479 90.184 152.749 89.248H155.395C154.999 90.76 154.207 91.975 153.019 92.893C151.831 93.793 150.346 94.243 148.564 94.243C147.16 94.243 145.909 93.928 144.811 93.298C143.731 92.668 142.885 91.777 142.273 90.625C141.661 89.473 141.355 88.123 141.355 86.575ZM165.127 94.243C163.741 94.243 162.481 93.928 161.347 93.298C160.231 92.668 159.349 91.777 158.701 90.625C158.071 89.455 157.756 88.105 157.756 86.575C157.756 85.063 158.08 83.731 158.728 82.579C159.394 81.409 160.294 80.518 161.428 79.906C162.562 79.276 163.831 78.961 165.235 78.961C166.639 78.961 167.908 79.276 169.042 79.906C170.176 80.518 171.067 81.4 171.715 82.552C172.381 83.704 172.714 85.045 172.714 86.575C172.714 88.105 172.372 89.455 171.688 90.625C171.022 91.777 170.113 92.668 168.961 93.298C167.809 93.928 166.531 94.243 165.127 94.243ZM165.127 92.083C166.009 92.083 166.837 91.876 167.611 91.462C168.385 91.048 169.006 90.427 169.474 89.599C169.96 88.771 170.203 87.763 170.203 86.575C170.203 85.387 169.969 84.379 169.501 83.551C169.033 82.723 168.421 82.111 167.665 81.715C166.909 81.301 166.09 81.094 165.208 81.094C164.308 81.094 163.48 81.301 162.724 81.715C161.986 82.111 161.392 82.723 160.942 83.551C160.492 84.379 160.267 85.387 160.267 86.575C160.267 87.781 160.483 88.798 160.915 89.626C161.365 90.454 161.959 91.075 162.697 91.489C163.435 91.885 164.245 92.083 165.127 92.083ZM176.727 94.162C176.259 94.162 175.863 94 175.539 93.676C175.215 93.352 175.053 92.956 175.053 92.488C175.053 92.02 175.215 91.624 175.539 91.3C175.863 90.976 176.259 90.814 176.727 90.814C177.177 90.814 177.555 90.976 177.861 91.3C178.185 91.624 178.347 92.02 178.347 92.488C178.347 92.956 178.185 93.352 177.861 93.676C177.555 94 177.177 94.162 176.727 94.162ZM180.695 86.575C180.695 85.045 181.001 83.713 181.613 82.579C182.225 81.427 183.071 80.536 184.151 79.906C185.249 79.276 186.5 78.961 187.904 78.961C189.722 78.961 191.216 79.402 192.386 80.284C193.574 81.166 194.357 82.39 194.735 83.956H192.089C191.837 83.056 191.342 82.345 190.604 81.823C189.884 81.301 188.984 81.04 187.904 81.04C186.5 81.04 185.366 81.526 184.502 82.498C183.638 83.452 183.206 84.811 183.206 86.575C183.206 88.357 183.638 89.734 184.502 90.706C185.366 91.678 186.5 92.164 187.904 92.164C188.984 92.164 189.884 91.912 190.604 91.408C191.324 90.904 191.819 90.184 192.089 89.248H194.735C194.339 90.76 193.547 91.975 192.359 92.893C191.171 93.793 189.686 94.243 187.904 94.243C186.5 94.243 185.249 93.928 184.151 93.298C183.071 92.668 182.225 91.777 181.613 90.625C181.001 89.473 180.695 88.123 180.695 86.575ZM204.467 94.243C203.081 94.243 201.821 93.928 200.687 93.298C199.571 92.668 198.689 91.777 198.041 90.625C197.411 89.455 197.096 88.105 197.096 86.575C197.096 85.063 197.42 83.731 198.068 82.579C198.734 81.409 199.634 80.518 200.768 79.906C201.902 79.276 203.171 78.961 204.575 78.961C205.979 78.961 207.248 79.276 208.382 79.906C209.516 80.518 210.407 81.4 211.055 82.552C211.721 83.704 212.054 85.045 212.054 86.575C212.054 88.105 211.712 89.455 211.028 90.625C210.362 91.777 209.453 92.668 208.301 93.298C207.149 93.928 205.871 94.243 204.467 94.243ZM204.467 92.083C205.349 92.083 206.177 91.876 206.951 91.462C207.725 91.048 208.346 90.427 208.814 89.599C209.3 88.771 209.543 87.763 209.543 86.575C209.543 85.387 209.309 84.379 208.841 83.551C208.373 82.723 207.761 82.111 207.005 81.715C206.249 81.301 205.43 81.094 204.548 81.094C203.648 81.094 202.82 81.301 202.064 81.715C201.326 82.111 200.732 82.723 200.282 83.551C199.832 84.379 199.607 85.387 199.607 86.575C199.607 87.781 199.823 88.798 200.255 89.626C200.705 90.454 201.299 91.075 202.037 91.489C202.775 91.885 203.585 92.083 204.467 92.083Z" fill="#707070"/>
<path d="M107.918 16.39V46H99.686V29.662L94.1 46H87.212L81.584 29.536V46H73.352V16.39H83.306L90.74 35.626L98.006 16.39H107.918ZM111.26 34.198C111.26 31.762 111.694 29.634 112.562 27.814C113.458 25.994 114.662 24.594 116.174 23.614C117.714 22.634 119.422 22.144 121.298 22.144C122.922 22.144 124.322 22.466 125.498 23.11C126.674 23.754 127.584 24.622 128.228 25.714V22.438H136.46V46H128.228V42.724C127.584 43.816 126.66 44.684 125.456 45.328C124.28 45.972 122.894 46.294 121.298 46.294C119.422 46.294 117.714 45.804 116.174 44.824C114.662 43.844 113.458 42.444 112.562 40.624C111.694 38.776 111.26 36.634 111.26 34.198ZM128.228 34.198C128.228 32.686 127.808 31.496 126.968 30.628C126.156 29.76 125.148 29.326 123.944 29.326C122.712 29.326 121.69 29.76 120.878 30.628C120.066 31.468 119.66 32.658 119.66 34.198C119.66 35.71 120.066 36.914 120.878 37.81C121.69 38.678 122.712 39.112 123.944 39.112C125.148 39.112 126.156 38.678 126.968 37.81C127.808 36.942 128.228 35.738 128.228 34.198ZM149.383 26.596C150.307 25.252 151.427 24.188 152.743 23.404C154.059 22.62 155.473 22.228 156.985 22.228V31.006H154.675C152.883 31.006 151.553 31.356 150.685 32.056C149.817 32.756 149.383 33.974 149.383 35.71V46H141.151V22.438H149.383V26.596ZM164.094 20.254C162.638 20.254 161.462 19.862 160.566 19.078C159.698 18.266 159.264 17.258 159.264 16.054C159.264 14.822 159.698 13.8 160.566 12.988C161.462 12.176 162.638 11.77 164.094 11.77C165.522 11.77 166.67 12.176 167.538 12.988C168.434 13.8 168.882 14.822 168.882 16.054C168.882 17.258 168.434 18.266 167.538 19.078C166.67 19.862 165.522 20.254 164.094 20.254ZM168.168 22.438V46H159.936V22.438H168.168ZM171.512 34.198C171.512 31.762 172.016 29.634 173.024 27.814C174.032 25.994 175.432 24.594 177.224 23.614C179.044 22.634 181.116 22.144 183.44 22.144C186.436 22.144 188.956 22.97 191 24.622C193.044 26.246 194.36 28.528 194.948 31.468H186.212C185.708 29.928 184.728 29.158 183.272 29.158C182.236 29.158 181.41 29.592 180.794 30.46C180.206 31.3 179.912 32.546 179.912 34.198C179.912 35.85 180.206 37.11 180.794 37.978C181.41 38.846 182.236 39.28 183.272 39.28C184.756 39.28 185.736 38.51 186.212 36.97H194.948C194.36 39.882 193.044 42.164 191 43.816C188.956 45.468 186.436 46.294 183.44 46.294C181.116 46.294 179.044 45.804 177.224 44.824C175.432 43.844 174.032 42.444 173.024 40.624C172.016 38.804 171.512 36.662 171.512 34.198ZM209.33 46.294C206.978 46.294 204.864 45.804 202.988 44.824C201.14 43.844 199.684 42.444 198.62 40.624C197.556 38.804 197.024 36.662 197.024 34.198C197.024 31.762 197.556 29.634 198.62 27.814C199.712 25.994 201.182 24.594 203.03 23.614C204.906 22.634 207.02 22.144 209.372 22.144C211.724 22.144 213.824 22.634 215.672 23.614C217.548 24.594 219.018 25.994 220.082 27.814C221.174 29.634 221.72 31.762 221.72 34.198C221.72 36.634 221.174 38.776 220.082 40.624C219.018 42.444 217.548 43.844 215.672 44.824C213.796 45.804 211.682 46.294 209.33 46.294ZM209.33 39.154C210.478 39.154 211.43 38.734 212.186 37.894C212.97 37.026 213.362 35.794 213.362 34.198C213.362 32.602 212.97 31.384 212.186 30.544C211.43 29.704 210.492 29.284 209.372 29.284C208.252 29.284 207.314 29.704 206.558 30.544C205.802 31.384 205.424 32.602 205.424 34.198C205.424 35.822 205.788 37.054 206.516 37.894C207.244 38.734 208.182 39.154 209.33 39.154Z" fill="white"/>
</svg>
