<svg width="496" height="38" viewBox="0 0 496 38" fill="none" xmlns="http://www.w3.org/2000/svg">
<path d="M39.675 13.725V9.75H46.6V28H42.15V13.725H39.675ZM49.5244 18.625C49.5244 15.7583 50.0744 13.5 51.1744 11.85C52.2911 10.2 54.0827 9.375 56.5494 9.375C59.0161 9.375 60.7994 10.2 61.8994 11.85C63.0161 13.5 63.5744 15.7583 63.5744 18.625C63.5744 21.525 63.0161 23.8 61.8994 25.45C60.7994 27.1 59.0161 27.925 56.5494 27.925C54.0827 27.925 52.2911 27.1 51.1744 25.45C50.0744 23.8 49.5244 21.525 49.5244 18.625ZM59.3744 18.625C59.3744 16.9417 59.1911 15.65 58.8244 14.75C58.4577 13.8333 57.6994 13.375 56.5494 13.375C55.3994 13.375 54.6411 13.8333 54.2744 14.75C53.9077 15.65 53.7244 16.9417 53.7244 18.625C53.7244 19.7583 53.7911 20.7 53.9244 21.45C54.0577 22.1833 54.3244 22.7833 54.7244 23.25C55.1411 23.7 55.7494 23.925 56.5494 23.925C57.3494 23.925 57.9494 23.7 58.3494 23.25C58.7661 22.7833 59.0411 22.1833 59.1744 21.45C59.3077 20.7 59.3744 19.7583 59.3744 18.625ZM65.833 18.625C65.833 15.7583 66.383 13.5 67.483 11.85C68.5997 10.2 70.3913 9.375 72.858 9.375C75.3247 9.375 77.108 10.2 78.208 11.85C79.3247 13.5 79.883 15.7583 79.883 18.625C79.883 21.525 79.3247 23.8 78.208 25.45C77.108 27.1 75.3247 27.925 72.858 27.925C70.3913 27.925 68.5997 27.1 67.483 25.45C66.383 23.8 65.833 21.525 65.833 18.625ZM75.683 18.625C75.683 16.9417 75.4997 15.65 75.133 14.75C74.7663 13.8333 74.008 13.375 72.858 13.375C71.708 13.375 70.9497 13.8333 70.583 14.75C70.2163 15.65 70.033 16.9417 70.033 18.625C70.033 19.7583 70.0997 20.7 70.233 21.45C70.3663 22.1833 70.633 22.7833 71.033 23.25C71.4497 23.7 72.058 23.925 72.858 23.925C73.658 23.925 74.258 23.7 74.658 23.25C75.0747 22.7833 75.3497 22.1833 75.483 21.45C75.6163 20.7 75.683 19.7583 75.683 18.625ZM82.1416 18.625C82.1416 15.7583 82.6916 13.5 83.7916 11.85C84.9083 10.2 86.6999 9.375 89.1666 9.375C91.6333 9.375 93.4166 10.2 94.5166 11.85C95.6333 13.5 96.1916 15.7583 96.1916 18.625C96.1916 21.525 95.6333 23.8 94.5166 25.45C93.4166 27.1 91.6333 27.925 89.1666 27.925C86.6999 27.925 84.9083 27.1 83.7916 25.45C82.6916 23.8 82.1416 21.525 82.1416 18.625ZM91.9916 18.625C91.9916 16.9417 91.8083 15.65 91.4416 14.75C91.0749 13.8333 90.3166 13.375 89.1666 13.375C88.0166 13.375 87.2583 13.8333 86.8916 14.75C86.5249 15.65 86.3416 16.9417 86.3416 18.625C86.3416 19.7583 86.4083 20.7 86.5416 21.45C86.6749 22.1833 86.9416 22.7833 87.3416 23.25C87.7583 23.7 88.3666 23.925 89.1666 23.925C89.9666 23.925 90.5666 23.7 90.9666 23.25C91.3833 22.7833 91.6583 22.1833 91.7916 21.45C91.9249 20.7 91.9916 19.7583 91.9916 18.625ZM111.55 21.175H107.2V25.625H103.15V21.175H98.8002V17.35H103.15V12.875H107.2V17.35H111.55V21.175Z" fill="white"/>
<path d="M124.357 21.125C124.357 19.7083 124.64 18.475 125.207 17.425C125.773 16.3583 126.557 15.5333 127.557 14.95C128.573 14.3667 129.732 14.075 131.032 14.075C132.715 14.075 134.098 14.4833 135.182 15.3C136.282 16.1167 137.007 17.25 137.357 18.7H134.907C134.673 17.8667 134.215 17.2083 133.532 16.725C132.865 16.2417 132.032 16 131.032 16C129.732 16 128.682 16.45 127.882 17.35C127.082 18.2333 126.682 19.4917 126.682 21.125C126.682 22.775 127.082 24.05 127.882 24.95C128.682 25.85 129.732 26.3 131.032 26.3C132.032 26.3 132.865 26.0667 133.532 25.6C134.198 25.1333 134.657 24.4667 134.907 23.6H137.357C136.99 25 136.257 26.125 135.157 26.975C134.057 27.8083 132.682 28.225 131.032 28.225C129.732 28.225 128.573 27.9333 127.557 27.35C126.557 26.7667 125.773 25.9417 125.207 24.875C124.64 23.8083 124.357 22.5583 124.357 21.125ZM142.667 16.525C143.067 15.7417 143.634 15.1333 144.367 14.7C145.117 14.2667 146.026 14.05 147.092 14.05V16.4H146.492C143.942 16.4 142.667 17.7833 142.667 20.55V28H140.392V14.3H142.667V16.525ZM162.218 20.625C162.218 21.0583 162.193 21.5167 162.143 22H151.193C151.277 23.35 151.735 24.4083 152.568 25.175C153.418 25.925 154.443 26.3 155.643 26.3C156.627 26.3 157.443 26.075 158.093 25.625C158.76 25.1583 159.227 24.5417 159.493 23.775H161.943C161.577 25.0917 160.843 26.1667 159.743 27C158.643 27.8167 157.277 28.225 155.643 28.225C154.343 28.225 153.177 27.9333 152.143 27.35C151.127 26.7667 150.327 25.9417 149.743 24.875C149.16 23.7917 148.868 22.5417 148.868 21.125C148.868 19.7083 149.152 18.4667 149.718 17.4C150.285 16.3333 151.077 15.5167 152.093 14.95C153.127 14.3667 154.31 14.075 155.643 14.075C156.943 14.075 158.093 14.3583 159.093 14.925C160.093 15.4917 160.86 16.275 161.393 17.275C161.943 18.2583 162.218 19.375 162.218 20.625ZM159.868 20.15C159.868 19.2833 159.677 18.5417 159.293 17.925C158.91 17.2917 158.385 16.8167 157.718 16.5C157.068 16.1667 156.343 16 155.543 16C154.393 16 153.41 16.3667 152.593 17.1C151.793 17.8333 151.335 18.85 151.218 20.15H159.868ZM164.371 21.1C164.371 19.7 164.655 18.475 165.221 17.425C165.788 16.3583 166.563 15.5333 167.546 14.95C168.546 14.3667 169.655 14.075 170.871 14.075C172.071 14.075 173.113 14.3333 173.996 14.85C174.88 15.3667 175.538 16.0167 175.971 16.8V14.3H178.271V28H175.971V25.45C175.521 26.25 174.846 26.9167 173.946 27.45C173.063 27.9667 172.03 28.225 170.846 28.225C169.63 28.225 168.53 27.925 167.546 27.325C166.563 26.725 165.788 25.8833 165.221 24.8C164.655 23.7167 164.371 22.4833 164.371 21.1ZM175.971 21.125C175.971 20.0917 175.763 19.1917 175.346 18.425C174.93 17.6583 174.363 17.075 173.646 16.675C172.946 16.2583 172.171 16.05 171.321 16.05C170.471 16.05 169.696 16.25 168.996 16.65C168.296 17.05 167.738 17.6333 167.321 18.4C166.905 19.1667 166.696 20.0667 166.696 21.1C166.696 22.15 166.905 23.0667 167.321 23.85C167.738 24.6167 168.296 25.2083 168.996 25.625C169.696 26.025 170.471 26.225 171.321 26.225C172.171 26.225 172.946 26.025 173.646 25.625C174.363 25.2083 174.93 24.6167 175.346 23.85C175.763 23.0667 175.971 22.1583 175.971 21.125ZM184.891 16.175V24.25C184.891 24.9167 185.033 25.3917 185.316 25.675C185.599 25.9417 186.091 26.075 186.791 26.075H188.466V28H186.416C185.149 28 184.199 27.7083 183.566 27.125C182.933 26.5417 182.616 25.5833 182.616 24.25V16.175H180.841V14.3H182.616V10.85H184.891V14.3H188.466V16.175H184.891ZM197.197 28.225C195.914 28.225 194.747 27.9333 193.697 27.35C192.664 26.7667 191.847 25.9417 191.247 24.875C190.664 23.7917 190.372 22.5417 190.372 21.125C190.372 19.725 190.672 18.4917 191.272 17.425C191.889 16.3417 192.722 15.5167 193.772 14.95C194.822 14.3667 195.997 14.075 197.297 14.075C198.597 14.075 199.772 14.3667 200.822 14.95C201.872 15.5167 202.697 16.3333 203.297 17.4C203.914 18.4667 204.222 19.7083 204.222 21.125C204.222 22.5417 203.906 23.7917 203.272 24.875C202.656 25.9417 201.814 26.7667 200.747 27.35C199.681 27.9333 198.497 28.225 197.197 28.225ZM197.197 26.225C198.014 26.225 198.781 26.0333 199.497 25.65C200.214 25.2667 200.789 24.6917 201.222 23.925C201.672 23.1583 201.897 22.225 201.897 21.125C201.897 20.025 201.681 19.0917 201.247 18.325C200.814 17.5583 200.247 16.9917 199.547 16.625C198.847 16.2417 198.089 16.05 197.272 16.05C196.439 16.05 195.672 16.2417 194.972 16.625C194.289 16.9917 193.739 17.5583 193.322 18.325C192.906 19.0917 192.697 20.025 192.697 21.125C192.697 22.2417 192.897 23.1833 193.297 23.95C193.714 24.7167 194.264 25.2917 194.947 25.675C195.631 26.0417 196.381 26.225 197.197 26.225ZM209.489 16.525C209.889 15.7417 210.455 15.1333 211.189 14.7C211.939 14.2667 212.847 14.05 213.914 14.05V16.4H213.314C210.764 16.4 209.489 17.7833 209.489 20.55V28H207.214V14.3H209.489V16.525ZM221.39 28.225C220.34 28.225 219.398 28.05 218.565 27.7C217.731 27.3333 217.073 26.8333 216.59 26.2C216.106 25.55 215.84 24.8083 215.79 23.975H218.14C218.206 24.6583 218.523 25.2167 219.09 25.65C219.673 26.0833 220.431 26.3 221.365 26.3C222.231 26.3 222.915 26.1083 223.415 25.725C223.915 25.3417 224.165 24.8583 224.165 24.275C224.165 23.675 223.898 23.2333 223.365 22.95C222.831 22.65 222.006 22.3583 220.89 22.075C219.873 21.8083 219.04 21.5417 218.39 21.275C217.756 20.9917 217.206 20.5833 216.74 20.05C216.29 19.5 216.065 18.7833 216.065 17.9C216.065 17.2 216.273 16.5583 216.69 15.975C217.106 15.3917 217.698 14.9333 218.465 14.6C219.231 14.25 220.106 14.075 221.09 14.075C222.606 14.075 223.831 14.4583 224.765 15.225C225.698 15.9917 226.198 17.0417 226.265 18.375H223.99C223.94 17.6583 223.648 17.0833 223.115 16.65C222.598 16.2167 221.898 16 221.015 16C220.198 16 219.548 16.175 219.065 16.525C218.581 16.875 218.34 17.3333 218.34 17.9C218.34 18.35 218.481 18.725 218.765 19.025C219.065 19.3083 219.431 19.5417 219.865 19.725C220.315 19.8917 220.931 20.0833 221.715 20.3C222.698 20.5667 223.498 20.8333 224.115 21.1C224.731 21.35 225.256 21.7333 225.69 22.25C226.14 22.7667 226.373 23.4417 226.39 24.275C226.39 25.025 226.181 25.7 225.765 26.3C225.348 26.9 224.756 27.375 223.99 27.725C223.24 28.0583 222.373 28.225 221.39 28.225ZM243.066 14.05C244.1 14.05 245.033 14.275 245.866 14.725C246.7 15.1583 247.35 15.8167 247.816 16.7C248.3 17.5833 248.541 18.6583 248.541 19.925V28H246.291V20.25C246.291 18.8833 245.95 17.8417 245.266 17.125C244.583 16.3917 243.65 16.025 242.466 16.025C241.266 16.025 240.308 16.4 239.591 17.15C238.891 17.9 238.541 18.9917 238.541 20.425V28H236.266V9.5H238.541V16.25C238.991 15.55 239.608 15.0083 240.391 14.625C241.191 14.2417 242.083 14.05 243.066 14.05ZM251.408 21.1C251.408 19.7 251.691 18.475 252.258 17.425C252.824 16.3583 253.599 15.5333 254.583 14.95C255.583 14.3667 256.691 14.075 257.908 14.075C259.108 14.075 260.149 14.3333 261.033 14.85C261.916 15.3667 262.574 16.0167 263.008 16.8V14.3H265.308V28H263.008V25.45C262.558 26.25 261.883 26.9167 260.983 27.45C260.099 27.9667 259.066 28.225 257.883 28.225C256.666 28.225 255.566 27.925 254.583 27.325C253.599 26.725 252.824 25.8833 252.258 24.8C251.691 23.7167 251.408 22.4833 251.408 21.1ZM263.008 21.125C263.008 20.0917 262.799 19.1917 262.383 18.425C261.966 17.6583 261.399 17.075 260.683 16.675C259.983 16.2583 259.208 16.05 258.358 16.05C257.508 16.05 256.733 16.25 256.033 16.65C255.333 17.05 254.774 17.6333 254.358 18.4C253.941 19.1667 253.733 20.0667 253.733 21.1C253.733 22.15 253.941 23.0667 254.358 23.85C254.774 24.6167 255.333 25.2083 256.033 25.625C256.733 26.025 257.508 26.225 258.358 26.225C259.208 26.225 259.983 26.025 260.683 25.625C261.399 25.2083 261.966 24.6167 262.383 23.85C262.799 23.0667 263.008 22.1583 263.008 21.125ZM274.252 25.9L278.502 14.3H280.927L275.552 28H272.902L267.527 14.3H269.977L274.252 25.9ZM295.666 20.625C295.666 21.0583 295.641 21.5167 295.591 22H284.641C284.724 23.35 285.182 24.4083 286.016 25.175C286.866 25.925 287.891 26.3 289.091 26.3C290.074 26.3 290.891 26.075 291.541 25.625C292.207 25.1583 292.674 24.5417 292.941 23.775H295.391C295.024 25.0917 294.291 26.1667 293.191 27C292.091 27.8167 290.724 28.225 289.091 28.225C287.791 28.225 286.624 27.9333 285.591 27.35C284.574 26.7667 283.774 25.9417 283.191 24.875C282.607 23.7917 282.316 22.5417 282.316 21.125C282.316 19.7083 282.599 18.4667 283.166 17.4C283.732 16.3333 284.524 15.5167 285.541 14.95C286.574 14.3667 287.757 14.075 289.091 14.075C290.391 14.075 291.541 14.3583 292.541 14.925C293.541 15.4917 294.307 16.275 294.841 17.275C295.391 18.2583 295.666 19.375 295.666 20.625ZM293.316 20.15C293.316 19.2833 293.124 18.5417 292.741 17.925C292.357 17.2917 291.832 16.8167 291.166 16.5C290.516 16.1667 289.791 16 288.991 16C287.841 16 286.857 16.3667 286.041 17.1C285.241 17.8333 284.782 18.85 284.666 20.15H293.316ZM304.484 21.1C304.484 19.7 304.767 18.475 305.334 17.425C305.9 16.3583 306.675 15.5333 307.659 14.95C308.659 14.3667 309.767 14.075 310.984 14.075C312.184 14.075 313.225 14.3333 314.109 14.85C314.992 15.3667 315.65 16.0167 316.084 16.8V14.3H318.384V28H316.084V25.45C315.634 26.25 314.959 26.9167 314.059 27.45C313.175 27.9667 312.142 28.225 310.959 28.225C309.742 28.225 308.642 27.925 307.659 27.325C306.675 26.725 305.9 25.8833 305.334 24.8C304.767 23.7167 304.484 22.4833 304.484 21.1ZM316.084 21.125C316.084 20.0917 315.875 19.1917 315.459 18.425C315.042 17.6583 314.475 17.075 313.759 16.675C313.059 16.2583 312.284 16.05 311.434 16.05C310.584 16.05 309.809 16.25 309.109 16.65C308.409 17.05 307.85 17.6333 307.434 18.4C307.017 19.1667 306.809 20.0667 306.809 21.1C306.809 22.15 307.017 23.0667 307.434 23.85C307.85 24.6167 308.409 25.2083 309.109 25.625C309.809 26.025 310.584 26.225 311.434 26.225C312.284 26.225 313.059 26.025 313.759 25.625C314.475 25.2083 315.042 24.6167 315.459 23.85C315.875 23.0667 316.084 22.1583 316.084 21.125ZM324.503 9.5V28H322.228V9.5H324.503ZM330.656 16.525C331.056 15.7417 331.622 15.1333 332.356 14.7C333.106 14.2667 334.014 14.05 335.081 14.05V16.4H334.481C331.931 16.4 330.656 17.7833 330.656 20.55V28H328.381V14.3H330.656V16.525ZM350.207 20.625C350.207 21.0583 350.182 21.5167 350.132 22H339.182C339.265 23.35 339.723 24.4083 340.557 25.175C341.407 25.925 342.432 26.3 343.632 26.3C344.615 26.3 345.432 26.075 346.082 25.625C346.748 25.1583 347.215 24.5417 347.482 23.775H349.932C349.565 25.0917 348.832 26.1667 347.732 27C346.632 27.8167 345.265 28.225 343.632 28.225C342.332 28.225 341.165 27.9333 340.132 27.35C339.115 26.7667 338.315 25.9417 337.732 24.875C337.148 23.7917 336.857 22.5417 336.857 21.125C336.857 19.7083 337.14 18.4667 337.707 17.4C338.273 16.3333 339.065 15.5167 340.082 14.95C341.115 14.3667 342.298 14.075 343.632 14.075C344.932 14.075 346.082 14.3583 347.082 14.925C348.082 15.4917 348.848 16.275 349.382 17.275C349.932 18.2583 350.207 19.375 350.207 20.625ZM347.857 20.15C347.857 19.2833 347.665 18.5417 347.282 17.925C346.898 17.2917 346.373 16.8167 345.707 16.5C345.057 16.1667 344.332 16 343.532 16C342.382 16 341.398 16.3667 340.582 17.1C339.782 17.8333 339.323 18.85 339.207 20.15H347.857ZM352.36 21.1C352.36 19.7 352.643 18.475 353.21 17.425C353.776 16.3583 354.551 15.5333 355.535 14.95C356.535 14.3667 357.643 14.075 358.86 14.075C360.06 14.075 361.101 14.3333 361.985 14.85C362.868 15.3667 363.526 16.0167 363.96 16.8V14.3H366.26V28H363.96V25.45C363.51 26.25 362.835 26.9167 361.935 27.45C361.051 27.9667 360.018 28.225 358.835 28.225C357.618 28.225 356.518 27.925 355.535 27.325C354.551 26.725 353.776 25.8833 353.21 24.8C352.643 23.7167 352.36 22.4833 352.36 21.1ZM363.96 21.125C363.96 20.0917 363.751 19.1917 363.335 18.425C362.918 17.6583 362.351 17.075 361.635 16.675C360.935 16.2583 360.16 16.05 359.31 16.05C358.46 16.05 357.685 16.25 356.985 16.65C356.285 17.05 355.726 17.6333 355.31 18.4C354.893 19.1667 354.685 20.0667 354.685 21.1C354.685 22.15 354.893 23.0667 355.31 23.85C355.726 24.6167 356.285 25.2083 356.985 25.625C357.685 26.025 358.46 26.225 359.31 26.225C360.16 26.225 360.935 26.025 361.635 25.625C362.351 25.2083 362.918 24.6167 363.335 23.85C363.751 23.0667 363.96 22.1583 363.96 21.125ZM369.254 21.1C369.254 19.7 369.538 18.475 370.104 17.425C370.671 16.3583 371.446 15.5333 372.429 14.95C373.429 14.3667 374.546 14.075 375.779 14.075C376.846 14.075 377.838 14.325 378.754 14.825C379.671 15.3083 380.371 15.95 380.854 16.75V9.5H383.154V28H380.854V25.425C380.404 26.2417 379.738 26.9167 378.854 27.45C377.971 27.9667 376.938 28.225 375.754 28.225C374.538 28.225 373.429 27.925 372.429 27.325C371.446 26.725 370.671 25.8833 370.104 24.8C369.538 23.7167 369.254 22.4833 369.254 21.1ZM380.854 21.125C380.854 20.0917 380.646 19.1917 380.229 18.425C379.813 17.6583 379.246 17.075 378.529 16.675C377.829 16.2583 377.054 16.05 376.204 16.05C375.354 16.05 374.579 16.25 373.879 16.65C373.179 17.05 372.621 17.6333 372.204 18.4C371.788 19.1667 371.579 20.0667 371.579 21.1C371.579 22.15 371.788 23.0667 372.204 23.85C372.621 24.6167 373.179 25.2083 373.879 25.625C374.579 26.025 375.354 26.225 376.204 26.225C377.054 26.225 377.829 26.025 378.529 25.625C379.246 25.2083 379.813 24.6167 380.229 23.85C380.646 23.0667 380.854 22.1583 380.854 21.125ZM398.799 14.3L390.549 34.45H388.199L390.899 27.85L385.374 14.3H387.899L392.199 25.4L396.449 14.3H398.799ZM412.601 28.225C411.551 28.225 410.609 28.05 409.776 27.7C408.942 27.3333 408.284 26.8333 407.801 26.2C407.317 25.55 407.051 24.8083 407.001 23.975H409.351C409.417 24.6583 409.734 25.2167 410.301 25.65C410.884 26.0833 411.642 26.3 412.576 26.3C413.442 26.3 414.126 26.1083 414.626 25.725C415.126 25.3417 415.376 24.8583 415.376 24.275C415.376 23.675 415.109 23.2333 414.576 22.95C414.042 22.65 413.217 22.3583 412.101 22.075C411.084 21.8083 410.251 21.5417 409.601 21.275C408.967 20.9917 408.417 20.5833 407.951 20.05C407.501 19.5 407.276 18.7833 407.276 17.9C407.276 17.2 407.484 16.5583 407.901 15.975C408.317 15.3917 408.909 14.9333 409.676 14.6C410.442 14.25 411.317 14.075 412.301 14.075C413.817 14.075 415.042 14.4583 415.976 15.225C416.909 15.9917 417.409 17.0417 417.476 18.375H415.201C415.151 17.6583 414.859 17.0833 414.326 16.65C413.809 16.2167 413.109 16 412.226 16C411.409 16 410.759 16.175 410.276 16.525C409.792 16.875 409.551 17.3333 409.551 17.9C409.551 18.35 409.692 18.725 409.976 19.025C410.276 19.3083 410.642 19.5417 411.076 19.725C411.526 19.8917 412.142 20.0833 412.926 20.3C413.909 20.5667 414.709 20.8333 415.326 21.1C415.942 21.35 416.467 21.7333 416.901 22.25C417.351 22.7667 417.584 23.4417 417.601 24.275C417.601 25.025 417.392 25.7 416.976 26.3C416.559 26.9 415.967 27.375 415.201 27.725C414.451 28.0583 413.584 28.225 412.601 28.225ZM423.587 16.175V24.25C423.587 24.9167 423.729 25.3917 424.012 25.675C424.296 25.9417 424.787 26.075 425.487 26.075H427.162V28H425.112C423.846 28 422.896 27.7083 422.262 27.125C421.629 26.5417 421.312 25.5833 421.312 24.25V16.175H419.537V14.3H421.312V10.85H423.587V14.3H427.162V16.175H423.587ZM429.069 21.1C429.069 19.7 429.352 18.475 429.919 17.425C430.485 16.3583 431.26 15.5333 432.244 14.95C433.244 14.3667 434.352 14.075 435.569 14.075C436.769 14.075 437.81 14.3333 438.694 14.85C439.577 15.3667 440.235 16.0167 440.669 16.8V14.3H442.969V28H440.669V25.45C440.219 26.25 439.544 26.9167 438.644 27.45C437.76 27.9667 436.727 28.225 435.544 28.225C434.327 28.225 433.227 27.925 432.244 27.325C431.26 26.725 430.485 25.8833 429.919 24.8C429.352 23.7167 429.069 22.4833 429.069 21.1ZM440.669 21.125C440.669 20.0917 440.46 19.1917 440.044 18.425C439.627 17.6583 439.06 17.075 438.344 16.675C437.644 16.2583 436.869 16.05 436.019 16.05C435.169 16.05 434.394 16.25 433.694 16.65C432.994 17.05 432.435 17.6333 432.019 18.4C431.602 19.1667 431.394 20.0667 431.394 21.1C431.394 22.15 431.602 23.0667 432.019 23.85C432.435 24.6167 432.994 25.2083 433.694 25.625C434.394 26.025 435.169 26.225 436.019 26.225C436.869 26.225 437.644 26.025 438.344 25.625C439.06 25.2083 439.627 24.6167 440.044 23.85C440.46 23.0667 440.669 22.1583 440.669 21.125ZM449.088 16.525C449.488 15.7417 450.055 15.1333 450.788 14.7C451.538 14.2667 452.447 14.05 453.513 14.05V16.4H452.913C450.363 16.4 449.088 17.7833 449.088 20.55V28H446.813V14.3H449.088V16.525ZM458.914 16.175V24.25C458.914 24.9167 459.056 25.3917 459.339 25.675C459.623 25.9417 460.114 26.075 460.814 26.075H462.489V28H460.439C459.173 28 458.223 27.7083 457.589 27.125C456.956 26.5417 456.639 25.5833 456.639 24.25V16.175H454.864V14.3H456.639V10.85H458.914V14.3H462.489V16.175H458.914ZM477.746 20.625C477.746 21.0583 477.721 21.5167 477.671 22H466.721C466.804 23.35 467.262 24.4083 468.096 25.175C468.946 25.925 469.971 26.3 471.171 26.3C472.154 26.3 472.971 26.075 473.621 25.625C474.287 25.1583 474.754 24.5417 475.021 23.775H477.471C477.104 25.0917 476.371 26.1667 475.271 27C474.171 27.8167 472.804 28.225 471.171 28.225C469.871 28.225 468.704 27.9333 467.671 27.35C466.654 26.7667 465.854 25.9417 465.271 24.875C464.687 23.7917 464.396 22.5417 464.396 21.125C464.396 19.7083 464.679 18.4667 465.246 17.4C465.812 16.3333 466.604 15.5167 467.621 14.95C468.654 14.3667 469.837 14.075 471.171 14.075C472.471 14.075 473.621 14.3583 474.621 14.925C475.621 15.4917 476.387 16.275 476.921 17.275C477.471 18.2583 477.746 19.375 477.746 20.625ZM475.396 20.15C475.396 19.2833 475.204 18.5417 474.821 17.925C474.437 17.2917 473.912 16.8167 473.246 16.5C472.596 16.1667 471.871 16 471.071 16C469.921 16 468.937 16.3667 468.121 17.1C467.321 17.8333 466.862 18.85 466.746 20.15H475.396ZM479.899 21.1C479.899 19.7 480.182 18.475 480.749 17.425C481.315 16.3583 482.09 15.5333 483.074 14.95C484.074 14.3667 485.19 14.075 486.424 14.075C487.49 14.075 488.482 14.325 489.399 14.825C490.315 15.3083 491.015 15.95 491.499 16.75V9.5H493.799V28H491.499V25.425C491.049 26.2417 490.382 26.9167 489.499 27.45C488.615 27.9667 487.582 28.225 486.399 28.225C485.182 28.225 484.074 27.925 483.074 27.325C482.09 26.725 481.315 25.8833 480.749 24.8C480.182 23.7167 479.899 22.4833 479.899 21.1ZM491.499 21.125C491.499 20.0917 491.29 19.1917 490.874 18.425C490.457 17.6583 489.89 17.075 489.174 16.675C488.474 16.2583 487.699 16.05 486.849 16.05C485.999 16.05 485.224 16.25 484.524 16.65C483.824 17.05 483.265 17.6333 482.849 18.4C482.432 19.1667 482.224 20.0667 482.224 21.1C482.224 22.15 482.432 23.0667 482.849 23.85C483.265 24.6167 483.824 25.2083 484.524 25.625C485.224 26.025 485.999 26.225 486.849 26.225C487.699 26.225 488.474 26.025 489.174 25.625C489.89 25.2083 490.457 24.6167 490.874 23.85C491.29 23.0667 491.499 22.1583 491.499 21.125Z" fill="#707070"/>
<path fill-rule="evenodd" clip-rule="evenodd" d="M14.3881 6.25732C19.1096 6.25732 22.9371 10.0848 22.9371 14.8063C22.9371 19.5278 19.1096 23.3553 14.3881 23.3553C9.66663 23.3553 5.83911 19.5278 5.83911 14.8063C5.83911 10.0848 9.66663 6.25732 14.3881 6.25732Z" fill="#0FC65C"/>
<path opacity="0.24" fill-rule="evenodd" clip-rule="evenodd" d="M14.882 1.00024C22.7797 1.00024 29.182 7.40259 29.182 15.3002C29.182 23.1979 22.7797 29.6002 14.882 29.6002C6.98438 29.6002 0.582031 23.1979 0.582031 15.3002C0.582031 7.40259 6.98438 1.00024 14.882 1.00024Z" fill="#0FC65C"/>
</svg>
