<svg width="223" height="106" viewBox="0 0 223 106" fill="none" xmlns="http://www.w3.org/2000/svg">
<path d="M3.348 77.801C2.88 77.801 2.484 77.639 2.16 77.315C1.836 76.991 1.674 76.595 1.674 76.127C1.674 75.659 1.836 75.263 2.16 74.939C2.484 74.615 2.88 74.453 3.348 74.453C3.798 74.453 4.176 74.615 4.482 74.939C4.806 75.263 4.968 75.659 4.968 76.127C4.968 76.595 4.806 76.991 4.482 77.315C4.176 77.639 3.798 77.801 3.348 77.801ZM4.536 80.204V95H2.079V80.204H4.536ZM15.9325 79.934C17.7325 79.934 19.1905 80.483 20.3065 81.581C21.4225 82.661 21.9805 84.227 21.9805 86.279V95H19.5505V86.63C19.5505 85.154 19.1815 84.029 18.4435 83.255C17.7055 82.463 16.6975 82.067 15.4195 82.067C14.1235 82.067 13.0885 82.472 12.3145 83.282C11.5585 84.092 11.1805 85.271 11.1805 86.819V95H8.72353V80.204H11.1805V82.31C11.6665 81.554 12.3235 80.969 13.1515 80.555C13.9975 80.141 14.9245 79.934 15.9325 79.934ZM32.015 82.229H28.91V95H26.453V82.229H24.536V80.204H26.453V79.151C26.453 77.495 26.876 76.289 27.722 75.533C28.586 74.759 29.963 74.372 31.853 74.372V76.424C30.773 76.424 30.008 76.64 29.558 77.072C29.126 77.486 28.91 78.179 28.91 79.151V80.204H32.015V82.229ZM41.3328 95.243C39.9468 95.243 38.6868 94.928 37.5528 94.298C36.4368 93.668 35.5548 92.777 34.9068 91.625C34.2768 90.455 33.9618 89.105 33.9618 87.575C33.9618 86.063 34.2858 84.731 34.9338 83.579C35.5998 82.409 36.4998 81.518 37.6338 80.906C38.7678 80.276 40.0368 79.961 41.4408 79.961C42.8448 79.961 44.1138 80.276 45.2478 80.906C46.3818 81.518 47.2728 82.4 47.9208 83.552C48.5868 84.704 48.9198 86.045 48.9198 87.575C48.9198 89.105 48.5778 90.455 47.8938 91.625C47.2278 92.777 46.3188 93.668 45.1668 94.298C44.0148 94.928 42.7368 95.243 41.3328 95.243ZM41.3328 93.083C42.2148 93.083 43.0428 92.876 43.8168 92.462C44.5908 92.048 45.2118 91.427 45.6798 90.599C46.1658 89.771 46.4088 88.763 46.4088 87.575C46.4088 86.387 46.1748 85.379 45.7068 84.551C45.2388 83.723 44.6268 83.111 43.8708 82.715C43.1148 82.301 42.2958 82.094 41.4138 82.094C40.5138 82.094 39.6858 82.301 38.9298 82.715C38.1918 83.111 37.5978 83.723 37.1478 84.551C36.6978 85.379 36.4728 86.387 36.4728 87.575C36.4728 88.781 36.6888 89.798 37.1208 90.626C37.5708 91.454 38.1648 92.075 38.9028 92.489C39.6408 92.885 40.4508 93.083 41.3328 93.083ZM65.6503 77.693C67.6483 77.693 69.3853 78.071 70.8613 78.827C72.3373 79.583 73.4713 80.645 74.2633 82.013C75.0553 83.363 75.4513 84.929 75.4513 86.711C75.4513 88.133 75.2173 89.501 74.7493 90.815C74.2813 92.111 73.5973 93.164 72.6973 93.974C71.8153 94.784 70.7803 95.189 69.5923 95.189C68.6923 95.189 67.9993 94.964 67.5133 94.514C67.0273 94.064 66.7483 93.452 66.6763 92.678C66.1183 93.452 65.4073 94.064 64.5433 94.514C63.6973 94.964 62.7973 95.189 61.8433 95.189C60.4753 95.189 59.3953 94.775 58.6033 93.947C57.8293 93.101 57.4423 91.967 57.4423 90.545C57.4423 89.195 57.7213 87.935 58.2793 86.765C58.8553 85.595 59.6473 84.659 60.6553 83.957C61.6633 83.237 62.8063 82.877 64.0843 82.877C65.7943 82.877 66.9463 83.525 67.5403 84.821L67.8373 83.147H69.9703L68.6203 90.95C68.5663 91.292 68.5393 91.607 68.5393 91.895C68.5393 92.975 69.0163 93.515 69.9703 93.515C70.6903 93.515 71.3113 93.173 71.8333 92.489C72.3733 91.805 72.7783 90.95 73.0483 89.924C73.3183 88.88 73.4533 87.854 73.4533 86.846C73.4533 84.488 72.7423 82.661 71.3203 81.365C69.9163 80.069 67.9273 79.421 65.3533 79.421C63.2113 79.421 61.2763 79.943 59.5483 80.987C57.8383 82.013 56.4973 83.426 55.5253 85.226C54.5533 87.026 54.0673 89.015 54.0673 91.193C54.0493 93.569 54.7603 95.396 56.2003 96.674C57.6403 97.97 59.6383 98.618 62.1943 98.618C63.8863 98.618 65.3803 98.312 66.6763 97.7L67.0003 99.374C65.3983 100.04 63.6343 100.373 61.7083 100.373C59.7823 100.373 58.0813 100.004 56.6053 99.266C55.1473 98.546 54.0133 97.502 53.2033 96.134C52.4113 94.784 52.0153 93.209 52.0153 91.409C52.0153 88.871 52.6003 86.558 53.7703 84.47C54.9403 82.364 56.5603 80.708 58.6303 79.502C60.7183 78.296 63.0583 77.693 65.6503 77.693ZM62.5723 93.272C63.3823 93.272 64.1293 93.038 64.8133 92.57C65.4973 92.084 66.0373 91.436 66.4333 90.626C66.8293 89.798 67.0273 88.898 67.0273 87.926C67.0273 86.99 66.7663 86.234 66.2443 85.658C65.7403 85.064 65.0203 84.767 64.0843 84.767C63.2203 84.767 62.4553 85.028 61.7893 85.55C61.1413 86.054 60.6373 86.729 60.2773 87.575C59.9173 88.403 59.7373 89.267 59.7373 90.167C59.7373 91.121 59.9803 91.877 60.4663 92.435C60.9523 92.993 61.6543 93.272 62.5723 93.272ZM97.2861 79.934C98.4381 79.934 99.4641 80.177 100.364 80.663C101.264 81.131 101.975 81.842 102.497 82.796C103.019 83.75 103.28 84.911 103.28 86.279V95H100.85V86.63C100.85 85.154 100.481 84.029 99.7431 83.255C99.0231 82.463 98.0421 82.067 96.8001 82.067C95.5221 82.067 94.5051 82.481 93.7491 83.309C92.9931 84.119 92.6151 85.298 92.6151 86.846V95H90.1851V86.63C90.1851 85.154 89.8161 84.029 89.0781 83.255C88.3581 82.463 87.3771 82.067 86.1351 82.067C84.8571 82.067 83.8401 82.481 83.0841 83.309C82.3281 84.119 81.9501 85.298 81.9501 86.846V95H79.4931V80.204H81.9501V82.337C82.4361 81.563 83.0841 80.969 83.8941 80.555C84.7221 80.141 85.6311 79.934 86.6211 79.934C87.8631 79.934 88.9611 80.213 89.9151 80.771C90.8691 81.329 91.5801 82.148 92.0481 83.228C92.4621 82.184 93.1461 81.374 94.1001 80.798C95.0541 80.222 96.1161 79.934 97.2861 79.934ZM106.392 87.548C106.392 86.036 106.698 84.713 107.31 83.579C107.922 82.427 108.759 81.536 109.821 80.906C110.901 80.276 112.098 79.961 113.412 79.961C114.708 79.961 115.833 80.24 116.787 80.798C117.741 81.356 118.452 82.058 118.92 82.904V80.204H121.404V95H118.92V92.246C118.434 93.11 117.705 93.83 116.733 94.406C115.779 94.964 114.663 95.243 113.385 95.243C112.071 95.243 110.883 94.919 109.821 94.271C108.759 93.623 107.922 92.714 107.31 91.544C106.698 90.374 106.392 89.042 106.392 87.548ZM118.92 87.575C118.92 86.459 118.695 85.487 118.245 84.659C117.795 83.831 117.183 83.201 116.409 82.769C115.653 82.319 114.816 82.094 113.898 82.094C112.98 82.094 112.143 82.31 111.387 82.742C110.631 83.174 110.028 83.804 109.578 84.632C109.128 85.46 108.903 86.432 108.903 87.548C108.903 88.682 109.128 89.672 109.578 90.518C110.028 91.346 110.631 91.985 111.387 92.435C112.143 92.867 112.98 93.083 113.898 93.083C114.816 93.083 115.653 92.867 116.409 92.435C117.183 91.985 117.795 91.346 118.245 90.518C118.695 89.672 118.92 88.691 118.92 87.575ZM128.014 82.607C128.446 81.761 129.058 81.104 129.85 80.636C130.66 80.168 131.641 79.934 132.793 79.934V82.472H132.145C129.391 82.472 128.014 83.966 128.014 86.954V95H125.557V80.204H128.014V82.607ZM136.898 77.801C136.43 77.801 136.034 77.639 135.71 77.315C135.386 76.991 135.224 76.595 135.224 76.127C135.224 75.659 135.386 75.263 135.71 74.939C136.034 74.615 136.43 74.453 136.898 74.453C137.348 74.453 137.726 74.615 138.032 74.939C138.356 75.263 138.518 75.659 138.518 76.127C138.518 76.595 138.356 76.991 138.032 77.315C137.726 77.639 137.348 77.801 136.898 77.801ZM138.086 80.204V95H135.629V80.204H138.086ZM141.355 87.575C141.355 86.045 141.661 84.713 142.273 83.579C142.885 82.427 143.731 81.536 144.811 80.906C145.909 80.276 147.16 79.961 148.564 79.961C150.382 79.961 151.876 80.402 153.046 81.284C154.234 82.166 155.017 83.39 155.395 84.956H152.749C152.497 84.056 152.002 83.345 151.264 82.823C150.544 82.301 149.644 82.04 148.564 82.04C147.16 82.04 146.026 82.526 145.162 83.498C144.298 84.452 143.866 85.811 143.866 87.575C143.866 89.357 144.298 90.734 145.162 91.706C146.026 92.678 147.16 93.164 148.564 93.164C149.644 93.164 150.544 92.912 151.264 92.408C151.984 91.904 152.479 91.184 152.749 90.248H155.395C154.999 91.76 154.207 92.975 153.019 93.893C151.831 94.793 150.346 95.243 148.564 95.243C147.16 95.243 145.909 94.928 144.811 94.298C143.731 93.668 142.885 92.777 142.273 91.625C141.661 90.473 141.355 89.123 141.355 87.575ZM165.127 95.243C163.741 95.243 162.481 94.928 161.347 94.298C160.231 93.668 159.349 92.777 158.701 91.625C158.071 90.455 157.756 89.105 157.756 87.575C157.756 86.063 158.08 84.731 158.728 83.579C159.394 82.409 160.294 81.518 161.428 80.906C162.562 80.276 163.831 79.961 165.235 79.961C166.639 79.961 167.908 80.276 169.042 80.906C170.176 81.518 171.067 82.4 171.715 83.552C172.381 84.704 172.714 86.045 172.714 87.575C172.714 89.105 172.372 90.455 171.688 91.625C171.022 92.777 170.113 93.668 168.961 94.298C167.809 94.928 166.531 95.243 165.127 95.243ZM165.127 93.083C166.009 93.083 166.837 92.876 167.611 92.462C168.385 92.048 169.006 91.427 169.474 90.599C169.96 89.771 170.203 88.763 170.203 87.575C170.203 86.387 169.969 85.379 169.501 84.551C169.033 83.723 168.421 83.111 167.665 82.715C166.909 82.301 166.09 82.094 165.208 82.094C164.308 82.094 163.48 82.301 162.724 82.715C161.986 83.111 161.392 83.723 160.942 84.551C160.492 85.379 160.267 86.387 160.267 87.575C160.267 88.781 160.483 89.798 160.915 90.626C161.365 91.454 161.959 92.075 162.697 92.489C163.435 92.885 164.245 93.083 165.127 93.083ZM176.727 95.162C176.259 95.162 175.863 95 175.539 94.676C175.215 94.352 175.053 93.956 175.053 93.488C175.053 93.02 175.215 92.624 175.539 92.3C175.863 91.976 176.259 91.814 176.727 91.814C177.177 91.814 177.555 91.976 177.861 92.3C178.185 92.624 178.347 93.02 178.347 93.488C178.347 93.956 178.185 94.352 177.861 94.676C177.555 95 177.177 95.162 176.727 95.162ZM180.695 87.575C180.695 86.045 181.001 84.713 181.613 83.579C182.225 82.427 183.071 81.536 184.151 80.906C185.249 80.276 186.5 79.961 187.904 79.961C189.722 79.961 191.216 80.402 192.386 81.284C193.574 82.166 194.357 83.39 194.735 84.956H192.089C191.837 84.056 191.342 83.345 190.604 82.823C189.884 82.301 188.984 82.04 187.904 82.04C186.5 82.04 185.366 82.526 184.502 83.498C183.638 84.452 183.206 85.811 183.206 87.575C183.206 89.357 183.638 90.734 184.502 91.706C185.366 92.678 186.5 93.164 187.904 93.164C188.984 93.164 189.884 92.912 190.604 92.408C191.324 91.904 191.819 91.184 192.089 90.248H194.735C194.339 91.76 193.547 92.975 192.359 93.893C191.171 94.793 189.686 95.243 187.904 95.243C186.5 95.243 185.249 94.928 184.151 94.298C183.071 93.668 182.225 92.777 181.613 91.625C181.001 90.473 180.695 89.123 180.695 87.575ZM204.467 95.243C203.081 95.243 201.821 94.928 200.687 94.298C199.571 93.668 198.689 92.777 198.041 91.625C197.411 90.455 197.096 89.105 197.096 87.575C197.096 86.063 197.42 84.731 198.068 83.579C198.734 82.409 199.634 81.518 200.768 80.906C201.902 80.276 203.171 79.961 204.575 79.961C205.979 79.961 207.248 80.276 208.382 80.906C209.516 81.518 210.407 82.4 211.055 83.552C211.721 84.704 212.054 86.045 212.054 87.575C212.054 89.105 211.712 90.455 211.028 91.625C210.362 92.777 209.453 93.668 208.301 94.298C207.149 94.928 205.871 95.243 204.467 95.243ZM204.467 93.083C205.349 93.083 206.177 92.876 206.951 92.462C207.725 92.048 208.346 91.427 208.814 90.599C209.3 89.771 209.543 88.763 209.543 87.575C209.543 86.387 209.309 85.379 208.841 84.551C208.373 83.723 207.761 83.111 207.005 82.715C206.249 82.301 205.43 82.094 204.548 82.094C203.648 82.094 202.82 82.301 202.064 82.715C201.326 83.111 200.732 83.723 200.282 84.551C199.832 85.379 199.607 86.387 199.607 87.575C199.607 88.781 199.823 89.798 200.255 90.626C200.705 91.454 201.299 92.075 202.037 92.489C202.775 92.885 203.585 93.083 204.467 93.083Z" fill="#707070"/>
<path d="M107.918 17.39V47H99.686V30.662L94.1 47H87.212L81.584 30.536V47H73.352V17.39H83.306L90.74 36.626L98.006 17.39H107.918ZM111.26 35.198C111.26 32.762 111.694 30.634 112.562 28.814C113.458 26.994 114.662 25.594 116.174 24.614C117.714 23.634 119.422 23.144 121.298 23.144C122.922 23.144 124.322 23.466 125.498 24.11C126.674 24.754 127.584 25.622 128.228 26.714V23.438H136.46V47H128.228V43.724C127.584 44.816 126.66 45.684 125.456 46.328C124.28 46.972 122.894 47.294 121.298 47.294C119.422 47.294 117.714 46.804 116.174 45.824C114.662 44.844 113.458 43.444 112.562 41.624C111.694 39.776 111.26 37.634 111.26 35.198ZM128.228 35.198C128.228 33.686 127.808 32.496 126.968 31.628C126.156 30.76 125.148 30.326 123.944 30.326C122.712 30.326 121.69 30.76 120.878 31.628C120.066 32.468 119.66 33.658 119.66 35.198C119.66 36.71 120.066 37.914 120.878 38.81C121.69 39.678 122.712 40.112 123.944 40.112C125.148 40.112 126.156 39.678 126.968 38.81C127.808 37.942 128.228 36.738 128.228 35.198ZM149.383 27.596C150.307 26.252 151.427 25.188 152.743 24.404C154.059 23.62 155.473 23.228 156.985 23.228V32.006H154.675C152.883 32.006 151.553 32.356 150.685 33.056C149.817 33.756 149.383 34.974 149.383 36.71V47H141.151V23.438H149.383V27.596ZM164.094 21.254C162.638 21.254 161.462 20.862 160.566 20.078C159.698 19.266 159.264 18.258 159.264 17.054C159.264 15.822 159.698 14.8 160.566 13.988C161.462 13.176 162.638 12.77 164.094 12.77C165.522 12.77 166.67 13.176 167.538 13.988C168.434 14.8 168.882 15.822 168.882 17.054C168.882 18.258 168.434 19.266 167.538 20.078C166.67 20.862 165.522 21.254 164.094 21.254ZM168.168 23.438V47H159.936V23.438H168.168ZM171.512 35.198C171.512 32.762 172.016 30.634 173.024 28.814C174.032 26.994 175.432 25.594 177.224 24.614C179.044 23.634 181.116 23.144 183.44 23.144C186.436 23.144 188.956 23.97 191 25.622C193.044 27.246 194.36 29.528 194.948 32.468H186.212C185.708 30.928 184.728 30.158 183.272 30.158C182.236 30.158 181.41 30.592 180.794 31.46C180.206 32.3 179.912 33.546 179.912 35.198C179.912 36.85 180.206 38.11 180.794 38.978C181.41 39.846 182.236 40.28 183.272 40.28C184.756 40.28 185.736 39.51 186.212 37.97H194.948C194.36 40.882 193.044 43.164 191 44.816C188.956 46.468 186.436 47.294 183.44 47.294C181.116 47.294 179.044 46.804 177.224 45.824C175.432 44.844 174.032 43.444 173.024 41.624C172.016 39.804 171.512 37.662 171.512 35.198ZM209.33 47.294C206.978 47.294 204.864 46.804 202.988 45.824C201.14 44.844 199.684 43.444 198.62 41.624C197.556 39.804 197.024 37.662 197.024 35.198C197.024 32.762 197.556 30.634 198.62 28.814C199.712 26.994 201.182 25.594 203.03 24.614C204.906 23.634 207.02 23.144 209.372 23.144C211.724 23.144 213.824 23.634 215.672 24.614C217.548 25.594 219.018 26.994 220.082 28.814C221.174 30.634 221.72 32.762 221.72 35.198C221.72 37.634 221.174 39.776 220.082 41.624C219.018 43.444 217.548 44.844 215.672 45.824C213.796 46.804 211.682 47.294 209.33 47.294ZM209.33 40.154C210.478 40.154 211.43 39.734 212.186 38.894C212.97 38.026 213.362 36.794 213.362 35.198C213.362 33.602 212.97 32.384 212.186 31.544C211.43 30.704 210.492 30.284 209.372 30.284C208.252 30.284 207.314 30.704 206.558 31.544C205.802 32.384 205.424 33.602 205.424 35.198C205.424 36.822 205.788 38.054 206.516 38.894C207.244 39.734 208.182 40.154 209.33 40.154Z" fill="white"/>
<path fill-rule="evenodd" clip-rule="evenodd" d="M0 39.5V52.5376H11.292V50.6929L0 39.5Z" fill="#326CF9"/>
<path fill-rule="evenodd" clip-rule="evenodd" d="M35.884 52.54H47.176V39.502L35.887 50.6958L35.884 52.54Z" fill="#326CF9"/>
<path fill-rule="evenodd" clip-rule="evenodd" d="M47.176 0.274414L23.638 28.0273L0 0.15625V24.1392L23.638 52.0122L47.172 24.2622L47.176 0.274414Z" fill="#326CF9"/>
</svg>
